<svg xmlns="http://www.w3.org/2000/svg" width="1800" height="640" viewBox="0 0 1800 640">
<style>
  text { font-family: "DejaVu Sans Mono", "JetBrains Mono", monospace; white-space: pre; }
  .c { font-size: 40px; font-weight: bold; fill: #ffffff; }
  .s { font-size: 17px; fill: #6a6762; }
</style>
<rect width="100%" height="100%" fill="#0b0b0b"/>
<text class="c" x="80" y="130">41</text>
<text class="s" x="80" y="156">J</text>
<text class="c" x="156" y="130">16744</text>
<text class="s" x="156" y="156">asm</text>
<text class="c" x="305" y="130">190303</text>
<text class="s" x="305" y="156">ínu</text>
<text class="c" x="477" y="130">305</text>
<text class="s" x="477" y="156">▁l</text>
<text class="c" x="577" y="130">7796</text>
<text class="s" x="577" y="156">oub</text>
<text class="c" x="702" y="130">556</text>
<text class="s" x="702" y="156">í</text>
<text class="c" x="802" y="130">13</text>
<text class="s" x="802" y="156">.</text>
<text class="c" x="878" y="130">33794</text>
<text class="s" x="878" y="156">▁Sed</text>
<text class="c" x="1026" y="130">11603</text>
<text class="s" x="1026" y="156">ím</text>
<text class="c" x="1175" y="130">337</text>
<text class="s" x="1175" y="156">▁u</text>
<text class="c" x="1275" y="130">14663</text>
<text class="s" x="1275" y="156">▁ví</text>
<text class="c" x="1423" y="130">1503</text>
<text class="s" x="1423" y="156">na</text>
<text class="c" x="80" y="260">89</text>
<text class="s" x="80" y="286">z</text>
<text class="c" x="156" y="260">737</text>
<text class="s" x="156" y="286">ve</text>
<text class="c" x="256" y="260">54560</text>
<text class="s" x="256" y="286">▁dobr</text>
<text class="c" x="405" y="260">377</text>
<text class="s" x="405" y="286">é</text>
<text class="c" x="505" y="260">74083</text>
<text class="s" x="505" y="286">▁druh</text>
<text class="c" x="653" y="260">88</text>
<text class="s" x="653" y="286">y</text>
<text class="c" x="730" y="260">54560</text>
<text class="s" x="730" y="286">▁dobr</text>
<text class="c" x="878" y="260">449</text>
<text class="s" x="878" y="286">á</text>
<text class="c" x="978" y="260">34332</text>
<text class="s" x="978" y="286">▁hod</text>
<text class="c" x="1127" y="260">1522</text>
<text class="s" x="1127" y="286">ina</text>
<text class="c" x="1251" y="260">1127</text>
<text class="s" x="1251" y="286">▁–</text>
<text class="c" x="80" y="390">64</text>
<text class="s" x="80" y="416">a</text>
<text class="c" x="156" y="390">10403</text>
<text class="s" x="156" y="416">▁já</text>
<text class="c" x="305" y="390">41782</text>
<text class="s" x="305" y="416">▁jsem</text>
<text class="c" x="453" y="390">265</text>
<text class="s" x="453" y="416">▁s</text>
<text class="c" x="553" y="390">11182</text>
<text class="s" x="553" y="416">ám</text>
<text class="c" x="702" y="390">13</text>
<text class="s" x="702" y="416">.</text>
<text class="c" x="778" y="390">631</text>
<text class="s" x="778" y="416">▁V</text>
<text class="c" x="878" y="390">37521</text>
<text class="s" x="878" y="416">tom</text>
<text class="c" x="1026" y="390">16313</text>
<text class="s" x="1026" y="416">▁ná</text>
<text class="c" x="1175" y="390">38693</text>
<text class="s" x="1175" y="416">hle</text>
<text class="c" x="1323" y="390">13168</text>
<text class="s" x="1323" y="416">▁nad</text>
<text class="c" x="1472" y="390">989</text>
<text class="s" x="1472" y="416">▁str</text>
<text class="c" x="1572" y="390">23087</text>
<text class="s" x="1572" y="416">ání</text>
<text class="c" x="80" y="520">43109</text>
<text class="s" x="80" y="546">kul</text>
<text class="c" x="228" y="520">266</text>
<text class="s" x="228" y="546">at</text>
<text class="c" x="329" y="520">1840</text>
<text class="s" x="329" y="546">ý</text>
<text class="c" x="453" y="520">198221</text>
<text class="s" x="453" y="546">▁měs</text>
<text class="c" x="625" y="520">23445</text>
<text class="s" x="625" y="546">íc</text>
<text class="c" x="774" y="520">458</text>
<text class="s" x="774" y="546">▁se</text>
<text class="c" x="874" y="520">3997</text>
<text class="s" x="874" y="546">▁mi</text>
<text class="c" x="998" y="520">119300</text>
<text class="s" x="998" y="546">▁ukl</text>
<text class="c" x="1171" y="520">23087</text>
<text class="s" x="1171" y="546">ání</text>
</svg>
